# xmcd
#
# Track frame offsets:
#	150
#	14705
#	31023
#	52007
#	63755
#	87941
#	102131
#	128033
#	144565
#	160742
#	161679
#
# Disc length: 2283 seconds
# Revision: 0
# Processed by: cddbd v1.5.2PL0 Copyright (c) Steve Scherf et al.
# Submitted via: dBpowerAMP V12.0
#
DISCID=8808e90b
DTITLE=Chip Taylor - The Little Prayers Trilogy - CD3 - Little Prayers
DYEAR=2014
DGENRE=Country
TTITLE0=Tryin' To Let The Angels Know
TTITLE1=Solitary
TTITLE2=Czechoslovakian Heaven
TTITLE3=Martha, Martha
TTITLE4=Queen Of The World
TTITLE5=Lord What Are You Giving Me Now
TTITLE6=He's A Good Guy (As Well You Know)
TTITLE7=The Supreme Court
TTITLE8=Little Prayers
TTITLE9=Spoken Intro To Last Song
TTITLE10=Wish I Could Die Just One More Time
EXTD=
EXTT0=
EXTT1=
EXTT2=
EXTT3=
EXTT4=
EXTT5=
EXTT6=
EXTT7=
EXTT8=
EXTT9=
EXTT10=
PLAYORDER=
